HIERARCHY
ROOT Hips
{
	OFFSET 0.00000 0.00000 0.00000
	CHANNELS 6 Xposition Yposition Zposition Zrotation Yrotation Xrotation 
	JOINT LHipJoint
	{
		OFFSET 0 0 0
		CHANNELS 3 Zrotation Yrotation Xrotation
		JOINT LeftUpLeg
		{
			OFFSET 1.59801 -1.77853 0.57028
			CHANNELS 3 Zrotation Yrotation Xrotation
			JOINT LeftLeg
			{
				OFFSET 2.39439 -6.57854 0.00000
				CHANNELS 3 Zrotation Yrotation Xrotation
				JOINT LeftFoot
				{
					OFFSET 2.69334 -7.39989 0.00000
					CHANNELS 3 Zrotation Yrotation Xrotation
					JOINT LeftToeBase
					{
						OFFSET 0.09553 -0.26245 1.73747
						CHANNELS 3 Zrotation Yrotation Xrotation
						End Site
						{
							OFFSET 0.00000 -0.00000 0.89391
						}
					}
				}
			}
		}
	}
	JOINT RHipJoint
	{
		OFFSET 0 0 0
		CHANNELS 3 Zrotation Yrotation Xrotation
		JOINT RightUpLeg
		{
			OFFSET -1.54704 -1.77852 0.57028
			CHANNELS 3 Zrotation Yrotation Xrotation
			JOINT RightLeg
			{
				OFFSET -2.40286 -6.60180 0.00000
				CHANNELS 3 Zrotation Yrotation Xrotation
				JOINT RightFoot
				{
					OFFSET -2.63873 -7.24984 0.00000
					CHANNELS 3 Zrotation Yrotation Xrotation
					JOINT RightToeBase
					{
						OFFSET -0.15631 -0.42945 1.84436
						CHANNELS 3 Zrotation Yrotation Xrotation
						End Site
						{
							OFFSET -0.00000 -0.00000 0.95734
						}
					}
				}
			}
		}
	}
	JOINT LowerBack
	{
		OFFSET 0 0 0
		CHANNELS 3 Zrotation Yrotation Xrotation
		JOINT Spine
		{
			OFFSET -0.00436 1.89866 -0.04018
			CHANNELS 3 Zrotation Yrotation Xrotation
			JOINT Spine1
			{
				OFFSET 0.02031 1.88273 0.09634
				CHANNELS 3 Zrotation Yrotation Xrotation
				JOINT Neck
				{
					OFFSET 0 0 0
					CHANNELS 3 Zrotation Yrotation Xrotation
					JOINT Neck1
					{
						OFFSET -0.13105 1.89371 0.23083
						CHANNELS 3 Zrotation Yrotation Xrotation
						JOINT Head
						{
							OFFSET 0.17062 1.83990 -0.54062
							CHANNELS 3 Zrotation Yrotation Xrotation
							End Site
							{
								OFFSET 0.04576 1.94782 -0.21839
							}
						}
					}
				}
				JOINT LeftShoulder
				{
					OFFSET 0 0 0
					CHANNELS 3 Zrotation Yrotation Xrotation
					JOINT LeftArm
					{
						OFFSET 3.12424 1.09204 0.22226
						CHANNELS 3 Zrotation Yrotation Xrotation
						JOINT LeftForeArm
						{
							OFFSET 5.29277 -0.00000 0.00000
							CHANNELS 3 Zrotation Yrotation Xrotation
							JOINT LeftHand
							{
								OFFSET 2.85226 -0.00000 0.00000
								CHANNELS 3 Zrotation Yrotation Xrotation
								JOINT LeftFingerBase
								{
									OFFSET 0 0 0
									CHANNELS 3 Zrotation Yrotation Xrotation
									JOINT LeftHandIndex1
									{
										OFFSET 0.60210 -0.00000 0.00000
										CHANNELS 3 Zrotation Yrotation Xrotation
										End Site
										{
											OFFSET 0.48543 -0.00000 0.00000
										}
									}
								}
								JOINT LThumb
								{
									OFFSET 0 0 0
									CHANNELS 3 Zrotation Yrotation Xrotation
									End Site
									{
										OFFSET 0.49284 -0.00000 0.49284
									}
								}
							}
						}
					}
				}
				JOINT RightShoulder
				{
					OFFSET 0 0 0
					CHANNELS 3 Zrotation Yrotation Xrotation
					JOINT RightArm
					{
						OFFSET -2.91709 1.01504 0.30199
						CHANNELS 3 Zrotation Yrotation Xrotation
						JOINT RightForeArm
						{
							OFFSET -5.13304 -0.00000 0.00000
							CHANNELS 3 Zrotation Yrotation Xrotation
							JOINT RightHand
							{
								OFFSET -2.74305 -0.00000 0.00000
								CHANNELS 3 Zrotation Yrotation Xrotation
								JOINT RightFingerBase
								{
									OFFSET 0 0 0
									CHANNELS 3 Zrotation Yrotation Xrotation
									JOINT RightHandIndex1
									{
										OFFSET -0.76798 -0.00000 0.00000
										CHANNELS 3 Zrotation Yrotation Xrotation
										End Site
										{
											OFFSET -0.61916 -0.00000 0.00000
										}
									}
								}
								JOINT RThumb
								{
									OFFSET 0 0 0
									CHANNELS 3 Zrotation Yrotation Xrotation
									End Site
									{
										OFFSET -0.62862 -0.00000 0.62862
									}
								}
							}
						}
					}
				}
			}
		}
	}
}
MOTION
Frames: 6
Frame Time: .0083333
0.1225 17.4219 -0.0619 0 0 0 0 0 0 -21 0 0 0 0 0 0 0 0 0 0 0 0 0 0 21 0 0 0 0 0 0 0 0 0 0 0 0 0 0 0 0 0 0 0 0 0 0 -16 0 0 21 0 0 11 0 0 0 -8 0 0 0 0 0 0 0 0 0 0 0 0 0 0 0 0 0 0 0 0 8 0 0 0 0 0 0 0 0 0 0 0 0 0 0 0 0 0
0.1225 17.4219 -0.0619 -1.1950 4.3211 1.6101 0.0000 0.0000 0.0000 -20.1866 -19.7082 6.1802 0.6134 5.0125 13.9443 0.3441 9.4663 -18.2740 1.0874 -6.6274 -18.6161 0.0000 0.0000 0.0000 20.8476 7.4465 11.0042 0.0000 -0.0000 0.0000 0.1656 -10.4988 -11.9808 -1.7960 8.4277 -24.0207 -2.0201 -0.0950 -2.6116 1.2051 -0.0842 -1.2509 2.3666 -0.0311 0.1861 -19.9655 -13.0303 -8.4269 19.0923 -20.0437 22.5045 7.3284 -9.1470 13.0711 0.0000 -0.0000 0.0000 -93.0583 -2.4367 -14.3268 7.7917 -13.2146 -0.9039 -0.0000 -0.0000 35.8211 5.7662 22.1865 2.1838 -7.1250 0.0000 -0.0000 -23.0253 50.7883 -3.4411 0.0000 -0.0000 0.0000 89.2824 -2.5572 18.7610 -10.6528 17.7541 -1.6685 0.0000 0.0000 37.8753 -9.8722 12.3135 -2.1255 7.1250 -0.0000 -0.0000 12.0405 -17.6472 8.0031
0.1212 17.4222 -0.0634 -1.1604 4.3080 1.6295 0.0000 0.0000 0.0000 -20.2088 -19.7008 6.1634 0.6118 5.0064 13.9268 0.3470 9.4625 -18.3030 1.0749 -6.5904 -18.5075 0.0000 0.0000 0.0000 20.8102 7.4685 10.9801 0.0000 0.0000 -0.0000 0.1645 -10.4958 -11.9989 -1.7947 8.4248 -24.0119 -2.0741 -0.0946 -2.6155 1.2196 -0.0823 -1.2127 2.4119 -0.0309 0.2274 -19.9221 -13.0442 -8.5804 18.9665 -20.0141 22.5550 7.2692 -9.1294 13.0919 0.0000 -0.0000 0.0000 -93.1358 -2.5307 -14.2139 7.8146 -13.2519 -0.9092 -0.0000 -0.0000 35.7771 5.7881 22.3357 2.2061 -7.1250 0.0000 -0.0000 -23.0826 50.9287 -3.5331 0.0000 -0.0000 0.0000 89.2197 -2.5330 18.9249 -10.6915 17.8139 -1.6803 0.0000 0.0000 37.7445 -9.8130 12.2764 -2.1062 7.1250 -0.0000 -0.0000 12.0828 -17.6872 8.0216
0.1205 17.4225 -0.0654 -1.1291 4.3110 1.6388 0.0000 0.0000 0.0000 -20.2323 -19.7063 6.1589 0.6098 4.9983 13.9036 0.3375 9.5744 -18.3115 1.1509 -6.8117 -19.1588 0.0000 0.0000 0.0000 20.7796 7.4699 10.9648 0.0000 0.0000 -0.0000 0.1671 -10.5039 -11.9568 -1.7948 8.4248 -24.0121 -2.0917 -0.1001 -2.5982 1.2114 -0.0895 -1.1737 2.4132 -0.0353 0.2581 -19.9053 -13.0615 -8.6999 18.9154 -20.0125 22.5933 7.2405 -9.1229 13.1224 -0.0000 -0.0000 0.0000 -93.1768 -2.6889 -14.5500 7.7831 -13.2007 -0.9020 -0.0000 -0.0000 36.1712 5.6929 22.1078 2.1486 -7.1250 0.0000 -0.0000 -23.0525 50.7045 -3.3963 -0.0000 -0.0000 0.0000 89.1854 -2.5260 19.1903 -10.7613 17.9214 -1.7017 0.0000 0.0000 37.5508 -9.6092 12.2178 -2.0520 7.1250 -0.0000 -0.0000 12.2256 -17.7558 8.1020
0.1204 17.4223 -0.0675 -1.0981 4.3160 1.6650 0.0000 0.0000 0.0000 -20.2532 -19.7205 6.1362 0.6073 4.9882 13.8750 0.3426 9.4969 -18.2880 1.1071 -6.6851 -18.7858 0.0000 0.0000 0.0000 20.7370 7.4759 10.9334 0.0000 0.0000 -0.0000 0.1689 -10.4963 -11.9049 -1.8159 8.4715 -24.1557 -2.1367 -0.1194 -2.5605 1.2365 -0.1150 -1.1663 2.4637 -0.0477 0.2461 -19.9461 -13.0391 -8.7353 18.9016 -19.9514 22.5560 7.2514 -9.0986 13.1025 0.0000 0.0000 0.0000 -93.2683 -2.7890 -14.9177 7.7415 -13.1330 -0.8925 -0.0000 -0.0000 36.5065 5.5238 21.2967 2.0116 -7.1250 0.0000 -0.0000 -22.7970 49.9325 -2.9058 0.0000 0.0000 0.0000 89.0947 -2.5142 19.3894 -10.7981 17.9782 -1.7131 0.0000 0.0000 37.4988 -9.5149 12.1814 -2.0255 7.1250 -0.0000 -0.0000 12.2921 -17.7967 8.1369
0.1212 17.4226 -0.0682 -1.1033 4.3248 1.6557 0.0000 0.0000 0.0000 -20.2577 -19.7236 6.1539 0.6059 4.9826 13.8590 0.3478 9.4137 -18.2607 1.0439 -6.4976 -18.2352 0.0000 0.0000 0.0000 20.7348 7.4667 10.9349 0.0000 0.0000 -0.0000 0.1698 -10.4921 -11.8775 -1.8310 8.5047 -24.2580 -2.0814 -0.1169 -2.5316 1.2396 -0.1133 -1.1212 2.4358 -0.0480 0.2761 -19.9944 -13.0306 -8.8228 18.9032 -19.9123 22.5555 7.2639 -9.0793 13.1173 0.0000 -0.0000 0.0000 -93.2936 -2.8848 -14.7855 7.7316 -13.1169 -0.8902 -0.0000 -0.0000 36.3932 5.4674 20.9012 1.9557 -7.1250 0.0000 -0.0000 -22.6541 49.5597 -2.6697 0.0000 -0.0000 0.0000 89.0451 -2.4727 19.6486 -10.8442 18.0491 -1.7274 0.0000 0.0000 37.2829 -9.5026 12.1657 -2.0203 7.1250 -0.0000 -0.0000 12.3013 -17.8128 8.1388
